<?xml version="1.0" encoding="utf-8"?>
<!-- Generator: Adobe Illustrator 23.0.4, SVG Export Plug-In . SVG Version: 6.00 Build 0)  -->
<svg version="1.0" id="Layer_1" xmlns="http://www.w3.org/2000/svg" xmlns:xlink="http://www.w3.org/1999/xlink" x="0px" y="0px"
	 viewBox="0 0 80 80" style="enable-background:new 0 0 80 80;" xml:space="preserve">
<style type="text/css">
	.st0{fill:none;stroke:#333333;stroke-width:1.5536;stroke-linecap:round;stroke-linejoin:round;stroke-miterlimit:10;}
	.st1{fill:#FCA326;stroke:#333333;stroke-width:1.5945;stroke-linecap:round;stroke-linejoin:round;stroke-miterlimit:10;}
</style>
<g>
	<g>
		<path class="st0" d="M6.3,32.3C9.5,16.7,23.3,5,39.9,5c15.6,0,28.8,10.4,32.9,24.7"/>
	</g>
	<polyline class="st0" points="78,20.6 73.4,30.7 63.3,26.1 	"/>
	<g>
		<path class="st0" d="M73.7,47.7C70.5,63.3,56.7,75,40.1,75C24.6,75,11.4,64.6,7.3,50.3"/>
	</g>
	<polyline class="st0" points="1.9,59.8 7,49.9 16.9,55.1 	"/>
</g>
<path class="st1" d="M60.9,36.8c-0.1,0-0.1,0-0.2,0c-1.2-0.2-2.4-0.3-3.6-0.5c-0.6-0.1-1.1-0.4-1.4-0.9c-0.1-0.1-0.1-0.2-0.1-0.3
	c-0.3-0.9-0.7-1.8-1.1-2.6c-0.1-0.1-0.1-0.2-0.1-0.3l-0.1-0.3c0-0.5,0.1-0.9,0.4-1.3c0.5-0.7,1.1-1.4,1.6-2.1c0.2-0.3,0.5-0.6,0.7-1
	c-1.3-1.7-2.8-3.1-4.5-4.4c0,0,0,0-0.1,0.1l0-0.1c-1,0.8-2,1.5-2.9,2.3c-0.7,0.5-1.3,0.6-2.1,0.3c-0.8-0.4-1.7-0.8-2.6-1.1
	c-0.5-0.2-0.9-0.5-1.1-1c-0.1-0.1-0.1-0.3-0.1-0.4c-0.2-1.2-0.3-2.5-0.5-3.7c0-0.1,0-0.1-0.1-0.1c0,0,0-0.1,0-0.1
	c-2.1-0.2-4.2-0.2-6.3,0c0,0.1,0,0.1,0,0.2c-0.2,1.2-0.3,2.4-0.5,3.6c-0.1,0.8-0.5,1.3-1.2,1.5c-0.9,0.3-1.8,0.7-2.7,1.1
	c-0.7,0.3-1.3,0.2-1.9-0.2c-1-0.7-2-1.5-3-2.3c-0.1-0.1-0.2-0.1-0.3,0c-0.7,0.6-1.4,1.2-2,1.8c-0.8,0.7-1.5,1.6-2.2,2.4
	c-0.1,0.1-0.1,0.1-0.1,0.2c0,0,0,0,0,0c0,0.1,0.1,0.1,0.1,0.2c0.7,1,1.5,1.9,2.2,2.9c0.1,0.1,0.2,0.2,0.2,0.4
	c0.2,0.5,0.2,1.1-0.1,1.7c-0.4,0.8-0.7,1.6-1,2.5c-0.3,0.8-0.8,1.2-1.6,1.3c-1.1,0.2-2.2,0.3-3.4,0.4c-0.1,0-0.3,0-0.4,0.1
	c0,0.3,0,0.7-0.1,1c0,0,0,0.1,0,0.1c0,0.1,0,0.1,0,0.2c-0.1,1.7-0.1,3.3,0.1,5c0,0,0,0,0,0c0,0.1,0,0.1,0.1,0.1
	c1.2,0.1,2.4,0.3,3.6,0.5c0.8,0.1,1.4,0.5,1.7,1.3c0.3,0.9,0.6,1.7,1.1,2.5c0.1,0.1,0.1,0.2,0.1,0.4c0.1,0.5,0.1,1.1-0.3,1.5
	c-0.5,0.6-1,1.3-1.5,1.9c-0.3,0.4-0.6,0.8-0.9,1.2c0,0,0,0,0,0.1c0,0,0,0,0,0c0,0,0,0,0,0c0,0,0,0,0,0c0.2,0.2,0.3,0.4,0.5,0.6
	c0,0,0.1,0.1,0.1,0.1c0,0.1,0.1,0.1,0.1,0.2c1.1,1.3,2.3,2.4,3.6,3.5c0.1,0.1,0.1,0,0.2,0c1-0.8,2-1.5,3-2.3
	c0.6-0.4,1.2-0.5,1.9-0.2c0.9,0.4,1.9,0.8,2.8,1.2c0.5,0.2,0.8,0.5,1,0.9c0.1,0.2,0.1,0.3,0.1,0.5c0.1,0.9,0.2,1.8,0.4,2.7
	c0,0.4,0.1,0.7,0.1,1c0,0,0,0,0,0c0,0,0,0,0,0c0,0.1,0.1,0.1,0.4,0.1c0,0,0.1,0,0.1,0c1.3,0.1,2.7,0.2,4,0.1c0.5,0,1.1-0.1,1.6-0.1
	c0.1,0,0.2,0,0.2-0.1c0.2-1.2,0.3-2.4,0.5-3.7c0.1-0.8,0.5-1.3,1.3-1.6c0.9-0.3,1.8-0.7,2.6-1.1c0.7-0.3,1.4-0.3,2,0.2
	c0.5,0.4,1,0.8,1.5,1.2c0.5,0.4,1,0.8,1.5,1.2c1.7-1.3,3.1-2.8,4.5-4.5c0,0-0.1-0.1-0.1-0.1c0,0,0,0,0-0.1c-0.8-1-1.5-1.9-2.3-2.9
	c-0.1-0.1-0.2-0.3-0.3-0.4c-0.2-0.4-0.2-0.9,0-1.4c0.4-0.9,0.8-1.9,1.2-2.8l0.6-0.9c0.2-0.2,0.5-0.3,0.9-0.3
	c0.6-0.1,1.3-0.2,1.9-0.3c0.6-0.1,1.3-0.2,1.9-0.3C61.2,41,61.2,38.9,60.9,36.8z M44.5,44.5c-2.5,2.5-6.5,2.5-9,0
	c-2.5-2.5-2.5-6.5,0-9c2.5-2.5,6.5-2.5,9,0C47,38,47,42,44.5,44.5z"/>
</svg>
